<svg id="레이어_1" data-name="레이어 1" xmlns="http://www.w3.org/2000/svg" viewBox="0 0 372 372"><defs><style>.cls-1{fill:#1e1e1e;}.cls-2{fill:#fff;}</style></defs><rect class="cls-1" width="372" height="372" rx="81.73"/><path class="cls-2" d="M829.38,494.41h22.91l2.1,11.08H855c9-7.64,20-13.75,31.5-13.75,26.35,0,42,21.57,42,54.41,0,36.65-22,57.84-45.43,57.84-9.36,0-18.33-4.2-26.54-11.64l1,17.56v32.45H829.38Zm70.26,52.12c0-20.43-6.5-31.69-21.19-31.69-7.26,0-13.75,3.63-21,11.07v47c6.68,5.92,13.55,8,19.28,8C889.71,580.89,899.64,569.82,899.64,546.53Z" transform="translate(-774.49 -354.32)"/><path class="cls-2" d="M948.51,585.66c0-10.49,7.44-18.32,17.37-18.32,10.12,0,17.56,7.83,17.56,18.32C983.44,596,976,604,965.88,604,956,604,948.51,596,948.51,585.66Z" transform="translate(-774.49 -354.32)"/><path class="cls-2" d="M1005.4,531.83c0-46.58,18.89-70.83,47.91-70.83S1101,485.44,1101,531.83c0,46.77-18.71,72.16-47.73,72.16S1005.4,578.6,1005.4,531.83Zm69.1,0c0-38.18-9-48.87-21.19-48.87s-21.38,10.69-21.38,48.87c0,38.37,9.16,50.21,21.38,50.21S1074.5,570.2,1074.5,531.83Z" transform="translate(-774.49 -354.32)"/></svg>