<svg id="레이어_1" data-name="레이어 1" xmlns="http://www.w3.org/2000/svg" viewBox="0 0 1402.59 372"><defs><style>.cls-1{fill:#1e1e1e;}.cls-2{fill:#fff;}</style></defs><rect class="cls-1" width="372" height="372" rx="81.73"/><path d="M749.52,503.38,666.38,615.81H749v24.3H624.54V624.77L708.65,513H630.87v-24.4H749.52Z" transform="translate(-194 -380)"/><path d="M868.49,594.09H793.18q1.83,27.58,32.62,27.59,18.76,0,33.47-9.47V634q-15.67,8.75-40.23,8.75-26.29,0-40.93-14.62t-14.64-40.88q0-25.74,15.71-41.85t39.32-16.11q23.6,0,36.8,13.9t13.19,38.19Zm-28.21-18.84q0-25.74-22.1-25.74a22.33,22.33,0,0,0-16.25,7q-7,7-8.75,18.74Z" transform="translate(-194 -380)"/><path d="M960.32,558.36a28.65,28.65,0,0,0-14.48-3.4,21.57,21.57,0,0,0-18,8.81q-6.77,8.81-6.76,23.63v52.71H891.13V531.9h29.93v20.8h.32q8.26-22.65,29.72-22.65c4.07,0,7.15.48,9.22,1.44Z" transform="translate(-194 -380)"/><path d="M969.66,586.68q0-26.56,16.3-42t44.2-15.39q26.92,0,42.54,15.08t15.6,40.41q0,26.35-16.14,42.16t-43.72,15.81q-27,0-42.91-15.19T969.66,586.68Zm30.25-.42q0,34.08,29.5,34.08,28.42,0,28.43-34.9,0-33.77-28.54-33.77-13.95,0-21.67,9.21T999.91,586.26Z" transform="translate(-194 -380)"/><path d="M1146.34,586.37v53.74h-30.57V488.56h52.14q57.71,0,57.71,47.46,0,23-17.43,37t-43.82,13.39Zm0-74.44v51.48h15.56q31.65,0,31.65-26.26,0-25.21-31-25.22Z" transform="translate(-194 -380)"/><path d="M1244.29,538.8q7.62-4.21,19.74-6.85a103.92,103.92,0,0,1,21.77-2.62q45.71,0,45.7,44.48v66.3H1303v-16h-.54q-11.37,18.65-33.79,18.64-16.31,0-25.85-8.8t-9.55-23.63q0-31,38.4-35.94l31.44-4.12q0-20.68-21-20.69-20.05,0-37.76,12Zm36.37,51.89q-19.32,2.37-19.32,16.58a13.15,13.15,0,0,0,4.62,10.4q4.61,4,12.44,4a23.49,23.49,0,0,0,17.7-7.26q7-7.26,7-18.27v-8.24Z" transform="translate(-194 -380)"/><path d="M1467.21,628.89q0,30.06-17.27,46.07t-50.1,16q-22.32,0-36.26-6.69V659.36q17.7,9.78,35.51,9.79,18.24,0,28.27-9.32t10-26.51v-9.58H1437q-12.23,19.05-36.15,19-21,0-33.9-14.52T1354,589.15q0-27.28,14.11-43.56t37.17-16.26q20.93,0,31.65,15.85h.43V531.9h29.82Zm-29.5-50.55a26.9,26.9,0,0,0-7.19-18.85,23.69,23.69,0,0,0-18.23-7.82q-12.88,0-20.44,9.57T1384.29,588q0,14.84,7.18,23.58t19.1,8.75q12.12,0,19.63-8.75t7.51-22.55Z" transform="translate(-194 -380)"/><path d="M1596.59,594.09h-75.31q1.83,27.58,32.61,27.59,18.78,0,33.47-9.47V634q-15.66,8.75-40.23,8.75-26.28,0-40.92-14.62t-14.65-40.88q0-25.74,15.72-41.85t39.32-16.11q23.6,0,36.79,13.9t13.2,38.19Zm-28.21-18.84q0-25.74-22.1-25.74a22.35,22.35,0,0,0-16.26,7q-7,7-8.74,18.74Z" transform="translate(-194 -380)"/><path class="cls-2" d="M248.9,520.09h22.91l2.09,11.07h.58c9-7.64,20-13.74,31.5-13.74,26.34,0,42,21.57,42,54.4,0,36.66-22,57.85-45.44,57.85-9.35,0-18.33-4.2-26.54-11.65l1,17.56V668H248.9Zm70.25,52.12c0-20.43-6.49-31.69-21.19-31.69-7.26,0-13.75,3.62-21,11.07v47c6.68,5.92,13.55,8,19.28,8C309.22,606.57,319.15,595.5,319.15,572.21Z" transform="translate(-194 -380)"/><path class="cls-2" d="M368,611.34c0-10.5,7.45-18.33,17.37-18.33,10.12,0,17.57,7.83,17.57,18.33,0,10.31-7.45,18.33-17.57,18.33C375.47,629.67,368,621.65,368,611.34Z" transform="translate(-194 -380)"/><path class="cls-2" d="M424.91,557.51c0-46.58,18.9-70.83,47.92-70.83s47.72,24.44,47.72,70.83c0,46.77-18.71,72.16-47.72,72.16S424.91,604.28,424.91,557.51Zm69.11,0c0-38.18-9-48.88-21.19-48.88s-21.39,10.7-21.39,48.88c0,38.37,9.17,50.2,21.39,50.2S494,595.88,494,557.51Z" transform="translate(-194 -380)"/></svg>